<?xml version="1.0" encoding="utf-8"?>
<!-- Generator: Adobe Illustrator 27.5.0, SVG Export Plug-In . SVG Version: 6.00 Build 0)  -->
<svg version="1.1" xmlns="http://www.w3.org/2000/svg" xmlns:xlink="http://www.w3.org/1999/xlink" x="0px" y="0px"
	 viewBox="0 0 3710 3710" style="enable-background:new 0 0 3710 3710;" xml:space="preserve">
<g id="Background">
	<g>
		<g>
			<rect style="fill:#FFFFFF;" width="3710" height="3710"/>
		</g>
	</g>
</g>
<g id="Illustration">
	<g>
		<linearGradient id="SVGID_1_" gradientUnits="userSpaceOnUse" x1="3499.8884" y1="3692.5601" x2="1524.5934" y2="1589.8271">
			<stop  offset="0" style="stop-color:#DAE3FE"/>
			<stop  offset="1" style="stop-color:#E9EFFD"/>
		</linearGradient>
		<path style="fill:url(#SVGID_1_);" d="M2906.808,2848.952c-72.92,75.163-138.166,119.347-188.121,152.702
			c-487.198,325.307-1044.119,231.546-1216.305,199.498c-277.801-51.705-512.304-88.18-713.783-270.208
			c-457.822-413.625-435.555-1276.476-85.722-1810.975c41.479-63.376,390.782-581.151,948.909-654.11
			c13.651-1.785,23.836-2.801,32.757-3.745c86.341-9.142,621.378-57.389,1057.647,308.118
			c62.45,52.32,162.95,146.693,256.146,290.627C3339.102,1587.145,3340.182,2402.247,2906.808,2848.952z"/>
		<g>
			<path style="fill:#BDD0FB;" d="M1766.134,1785.876c11.118-182.225-38.552-350.19-127.137-472.001
				c-79.19-108.892-114.314-244.213-95.292-377.372c1.999-13.997,3.455-28.247,4.339-42.715
				c13.372-219.157-110.068-405.013-275.713-415.12c-165.645-10.108-310.767,159.361-324.139,378.518
				c-2.735,44.814,0.258,88.225,8.164,129.024c25.231,130.205,2.478,265.776-68.506,377.874
				c-63.435,100.178-104.714,224.686-113.05,361.304c-12.432,203.759,51.137,389.696,160.13,513.212
				c41.227,46.72,73.84,100.677,95.583,159.014c36.132,96.944,113.164,165.842,206.161,171.516
				c100.323,6.121,191.144-63.046,236.029-167.476c25.4-59.097,62.108-112.43,106.421-159.119
				C1683.735,2132.317,1754.893,1970.116,1766.134,1785.876z"/>
			
				<linearGradient id="SVGID_00000101809029221581701760000006192132802319776157_" gradientUnits="userSpaceOnUse" x1="-2576.1702" y1="954.0318" x2="-2103.1895" y2="954.0318" gradientTransform="matrix(-0.9632 -0.2689 -0.2689 0.9632 -686.8483 45.8654)">
				<stop  offset="0" style="stop-color:#DAE3FE"/>
				<stop  offset="1" style="stop-color:#E9EFFD"/>
			</linearGradient>
			<path style="fill:url(#SVGID_00000101809029221581701760000006192132802319776157_);" d="M1316.108,715.348
				c12.802,146.161,20.896,292.615,27.462,439.153c1.658,36.633,2.725,73.289,3.912,109.942l1.771,54.978l1.311,54.993
				c0.732,36.666,1.97,73.322,2.287,109.997l0.96,110.021c-0.299,73.354,0.026,146.708-1.637,220.057
				c-0.78,36.672-0.843,73.353-2.368,110.013l-4.064,109.972c-6.9,146.566-17.486,293.028-35.462,438.668l-6.284-0.712
				l9.301-109.479l2.383-27.355l1.701-27.415l3.297-54.831l3.399-54.814c1.166-18.267,1.654-36.581,2.514-54.868
				c1.476-36.589,3.242-73.161,4.48-109.755c4.008-146.421,6.073-292.896,5.115-439.395c-1.039-73.245-1.45-146.493-2.998-219.736
				l-1.01-54.933l-1.47-54.925c-0.958-36.618-1.918-73.236-3.247-109.845c-2.032-73.236-4.588-146.465-7.743-219.669
				c-2.77-73.22-6.232-146.433-9.919-219.602L1316.108,715.348z"/>
		</g>
		<g>
			<path style="fill:#91B3FA;" d="M1284.192,1558.57c-15.6-156.415-80.784-292.363-172.623-383.74
				c-82.098-81.686-130.464-191.885-132.625-307.679c-0.228-12.171-0.95-24.483-2.188-36.901
				c-18.764-188.115-148.951-329.144-290.783-314.997c-141.833,14.146-241.6,178.112-222.837,366.225
				c3.836,38.466,12.335,74.954,24.642,108.547c39.277,107.208,38.604,225.564-6.182,330.589
				c-40.027,93.856-57.925,205.35-46.228,322.618c17.444,174.897,96.88,324.213,206.257,414.239
				c41.371,34.051,76.435,75.437,102.88,122.038c43.95,77.44,118.727,125.428,198.356,117.486
				c85.9-8.569,153.405-79.826,177.118-174.752c13.418-53.716,37.216-104.088,68.375-149.854
				C1261.912,1864.346,1299.967,1716.712,1284.192,1558.57z"/>
			<path style="opacity:0.57;fill:#FFFFFF;" d="M755.598,710.417c30.929,122.476,57.908,245.849,83.601,369.501
				c6.436,30.91,12.378,61.92,18.418,92.91l9.052,46.488l8.665,46.564c5.655,31.064,11.741,62.05,17.046,93.179l15.923,93.385
				c9.824,62.391,20.174,124.695,28.838,187.269c4.376,31.277,9.361,62.464,13.102,93.834l11.66,94.031
				c14.28,125.524,25.42,251.467,30.182,377.726l-5.427,0.257l-7.15-94.331l-1.736-23.578l-2.323-23.536l-4.735-47.057
				l-4.646-47.057c-1.52-15.688-3.622-31.321-5.404-46.983c-3.775-31.302-7.3-62.629-11.276-93.904
				c-16.712-125.005-35.079-249.789-56.012-374.178c-10.942-62.115-21.35-124.317-32.722-186.36l-8.402-46.553l-8.791-46.484
				c-5.842-30.993-11.685-61.986-17.839-92.919c-11.782-61.971-24.007-123.863-36.736-185.652
				c-12.407-61.856-25.397-123.61-38.572-185.296L755.598,710.417z"/>
		</g>
		<g>
			<g>
				
					<linearGradient id="SVGID_00000024001647559841150530000007656779134918495673_" gradientUnits="userSpaceOnUse" x1="1675.0995" y1="2713.6777" x2="2282.2537" y2="892.2102">
					<stop  offset="0" style="stop-color:#09005D"/>
					<stop  offset="1" style="stop-color:#1A0F91"/>
				</linearGradient>
				<path style="fill:url(#SVGID_00000024001647559841150530000007656779134918495673_);" d="M3242.821,2779.755
					c0,26.121-21.393,47.494-47.54,47.494H624.537c-26.147,0-47.539-21.372-47.539-47.494l-21.391-1477.336
					c0-26.122,30.776-77.118,87.177-73.285l2512.416-65.009c32.806-0.849,64.526,11.778,87.758,34.935
					c23.232,23.156,35.943,54.816,35.168,87.592L3242.821,2779.755z"/>
				<path style="fill:#91B3FA;" d="M3195.887,2734.191c0,24.736-20.239,44.975-44.976,44.975H686.531
					c-24.737,0-44.975-20.239-44.975-44.975L621.37,1393.052c2.378-80.707,73.135-109.713,116.027-108l2407.992-64.603
					c23.048-0.619,45.339,8.255,61.656,24.544c16.318,16.289,25.23,38.564,24.652,61.614L3195.887,2734.191z"/>
				<g>
					
						<linearGradient id="SVGID_00000074439900556013935860000000471836564715287182_" gradientUnits="userSpaceOnUse" x1="662.3478" y1="2036.0768" x2="672.4344" y2="2036.0768">
						<stop  offset="0" style="stop-color:#DAE3FE"/>
						<stop  offset="1" style="stop-color:#E9EFFD"/>
					</linearGradient>
					<path style="fill:url(#SVGID_00000074439900556013935860000000471836564715287182_);" d="M668.189,2094.706
						c-2.315,0-4.209-1.859-4.243-4.182l-1.598-108.765c-0.034-2.344,1.838-4.271,4.182-4.306c2.266-0.126,4.272,1.838,4.306,4.182
						l1.598,108.765c0.034,2.344-1.838,4.271-4.182,4.306C668.231,2094.706,668.21,2094.706,668.189,2094.706z"/>
					
						<linearGradient id="SVGID_00000086663521183440134920000001155493285032202392_" gradientUnits="userSpaceOnUse" x1="653.9144" y1="1560.2568" x2="1533.6091" y2="1560.2568">
						<stop  offset="0" style="stop-color:#DAE3FE"/>
						<stop  offset="1" style="stop-color:#E9EFFD"/>
					</linearGradient>
					<path style="fill:url(#SVGID_00000086663521183440134920000001155493285032202392_);" d="M664.275,1828.176
						c-2.315,0-4.209-1.859-4.243-4.182l-6.117-416.565c0.127-28.004,8.762-50.376,25.663-66.573
						c30.711-29.426,78.727-27.948,80.755-27.869l768.918-20.635c2.321-0.209,4.293,1.785,4.357,4.128
						c0.063,2.344-1.786,4.294-4.129,4.356l-769.167,20.635c-2.187-0.087-46.723-1.451-74.862,25.515
						c-15.177,14.543-22.932,34.865-23.048,60.399l6.117,416.484c0.034,2.344-1.838,4.271-4.182,4.306
						C664.317,1828.176,664.295,1828.176,664.275,1828.176z"/>
				</g>
				<path style="opacity:0.17;fill:#FFFFFF;" d="M750.128,2659.791c2.58-110.846,1.619-1092.422-4.741-1177.196
					c-6.36-84.773,125.669-100.674,328.373-110.214c202.704-9.54,1913-47.311,1957.036-50.882
					c98.984-8.026,119.473,139.924,109.57,461.115c-7.44,241.306-19.771,638.818-25.445,821.623
					c-1.689,54.432-46.178,97.619-100.636,97.769c-411.568,1.131-1988.983,5.652-2093.993,8.779
					C799.449,2714.384,749.104,2703.744,750.128,2659.791z"/>
			</g>
			<g style="opacity:0.4;">
				<rect x="776.921" y="2347.151" style="fill:#FFFFFF;" width="143.325" height="331.046"/>
				<rect x="1016.403" y="2055.054" style="fill:#FFFFFF;" width="143.325" height="623.143"/>
				<rect x="1255.885" y="2333.741" style="fill:#FFFFFF;" width="143.325" height="344.455"/>
				<rect x="1495.367" y="2163.848" style="fill:#FFFFFF;" width="143.324" height="514.349"/>
				<rect x="1734.849" y="2203.881" style="fill:#FFFFFF;" width="143.325" height="474.315"/>
				<rect x="1974.331" y="2156.046" style="fill:#FFFFFF;" width="143.324" height="522.151"/>
				<rect x="2213.813" y="1820.907" style="fill:#FFFFFF;" width="143.324" height="857.29"/>
				<rect x="2453.295" y="1967.148" style="fill:#FFFFFF;" width="143.324" height="711.049"/>
				<rect x="2692.776" y="2122.573" style="fill:#FFFFFF;" width="143.324" height="555.624"/>
				<rect x="2932.259" y="1733.246" style="fill:#FFFFFF;" width="143.325" height="944.951"/>
			</g>
			<g>
				<g>
					<path style="fill:#7D97F4;" d="M3008.129,1798.398c5.26,0.063,9.522,0.59,9.522,1.177v306.915c0,0.588-4.263,1.106-9.522,1.158
						c-5.264,0.052-9.536-0.383-9.536-0.971v-307.325C2998.593,1798.763,3002.865,1798.336,3008.129,1798.398z"/>
					<polygon style="fill:#7D97F4;" points="2930.907,1572.139 3077.928,1574.158 3077.928,1886.655 2930.907,1887.876 					"/>
					<path style="fill:#7D97F4;" d="M2764.829,1769.38c5.127,0.081,9.283,0.516,9.283,0.971v237.84c0,0.455-4.156,0.833-9.283,0.844
						c-5.131,0.01-9.296-0.351-9.296-0.807V1770.06C2755.533,1769.604,2759.697,1769.3,2764.829,1769.38z"/>
					<polygon style="fill:#7D97F4;" points="2692.781,1704.74 2836.106,1707.452 2836.106,1892.061 2692.781,1891.325 					"/>
					<path style="fill:#7D97F4;" d="M2525.164,2129.791c5.141,0.013,9.307,0.377,9.307,0.813v227.881
						c0,0.437-4.166,0.853-9.307,0.93c-5.145,0.078-9.32-0.214-9.32-0.651v-228.206
						C2515.844,2130.122,2520.019,2129.778,2525.164,2129.791z"/>
					<polygon style="fill:#7D97F4;" points="2452.889,1866.205 2596.59,1865.323 2596.59,2138.52 2452.889,2142.424 					"/>
					<path style="fill:#7D97F4;" d="M2285.029,1853.24c4.607,0,8.342,0.348,8.342,0.777v223.623c0,0.428-3.734,0.848-8.342,0.937
						c-4.611,0.09-8.354-0.186-8.354-0.614v-223.948C2276.676,1853.586,2280.418,1853.239,2285.029,1853.24z"/>
					<polygon style="fill:#7D97F4;" points="2213.811,1783.881 2357.138,1782.675 2357.138,1962.579 2213.811,1965.808 					"/>
					<path style="fill:#7D97F4;" d="M2044.027,1746.691c4.734,0.025,8.57,0.49,8.57,1.039v286.522c0,0.548-3.836,1.068-8.57,1.161
						c-4.738,0.093-8.583-0.278-8.583-0.827V1747.64C2035.444,1747.091,2039.289,1746.666,2044.027,1746.691z"/>
					<polygon style="fill:#7D97F4;" points="1977.487,1696.293 2117.656,1695.972 2117.656,1902.654 1977.487,1905.338 					"/>
					<path style="fill:#7D97F4;" d="M1809.817,2196.923c4.919-0.005,8.905,0.282,8.905,0.641v187.332
						c0,0.359-3.986,0.718-8.905,0.802c-4.923,0.084-8.919-0.138-8.919-0.498v-187.618
						C1800.897,2197.223,1804.893,2196.928,1809.817,2196.923z"/>
					<polygon style="fill:#7D97F4;" points="1726.945,1965.096 1878.116,1962.985 1878.116,2201.424 1726.945,2206.358 					"/>
					<polygon style="fill:#7D97F4;" points="1495.202,2037.548 1638.575,2036.921 1638.575,2174.265 1495.202,2176.548 					"/>
					<polygon style="fill:#7D97F4;" points="1253.422,1992.015 1396.847,1987.388 1396.847,2192.141 1253.422,2199.326 					"/>
					<path style="fill:#7D97F4;" d="M1077.603,2281.187c4.901-0.127,8.872,0.112,8.872,0.532v219.842
						c0,0.421-3.971,0.946-8.872,1.174c-4.905,0.227-8.887,0.07-8.887-0.352V2282.18
						C1068.717,2281.758,1072.698,2281.313,1077.603,2281.187z"/>
					<polygon style="fill:#7D97F4;" points="1012.416,2366.324 1161.239,2359.666 1161.239,2511.03 1012.416,2519.617 					"/>
					<polygon style="fill:#7D97F4;" points="776.62,1977.967 918.95,1974.811 918.95,2115.224 776.62,2120.203 					"/>
				</g>
				<g>
					
						<linearGradient id="SVGID_00000013912088984711373630000013497553495340401281_" gradientUnits="userSpaceOnUse" x1="839.0121" y1="2261.4563" x2="857.4617" y2="2261.4563">
						<stop  offset="0" style="stop-color:#4F52FF"/>
						<stop  offset="1" style="stop-color:#4042E2"/>
					</linearGradient>
					<path style="fill:url(#SVGID_00000013912088984711373630000013497553495340401281_);" d="M848.245,2610.72
						c-5.096,0.431-9.232-0.297-9.232-1.627v-694.413c0-1.33,4.136-2.496,9.232-2.604c5.091-0.109,9.217,0.88,9.217,2.207v693.252
						C857.462,2608.864,853.336,2610.289,848.245,2610.72z"/>
					
						<linearGradient id="SVGID_00000173163271136230520390000004787160356245093263_" gradientUnits="userSpaceOnUse" x1="902.2785" y1="2064.6853" x2="770.145" y2="2508.3765">
						<stop  offset="0" style="stop-color:#4F52FF"/>
						<stop  offset="1" style="stop-color:#4042E2"/>
					</linearGradient>
					<polygon style="fill:url(#SVGID_00000173163271136230520390000004787160356245093263_);" points="918.95,2381.649 
						776.62,2391.252 776.62,2113.689 918.95,2107.643 					"/>
					
						<linearGradient id="SVGID_00000088820869413364320930000017781559885677304758_" gradientUnits="userSpaceOnUse" x1="1084.5929" y1="2347.4487" x2="1102.351" y2="2347.4487">
						<stop  offset="0" style="stop-color:#4F52FF"/>
						<stop  offset="1" style="stop-color:#4042E2"/>
					</linearGradient>
					<path style="fill:url(#SVGID_00000088820869413364320930000017781559885677304758_);" d="M1093.479,2592.985
						c-4.905,0.431-8.886,0.023-8.886-0.912v-488.221c0-0.935,3.981-1.862,8.886-2.071c4.9-0.209,8.872,0.379,8.872,1.313v487.421
						C1102.351,2591.448,1098.38,2592.554,1093.479,2592.985z"/>
					
						<linearGradient id="SVGID_00000106835874247964896260000001800887833298854842_" gradientUnits="userSpaceOnUse" x1="1124.8542" y1="2220.7036" x2="1037.9453" y2="2512.5349">
						<stop  offset="0" style="stop-color:#4F52FF"/>
						<stop  offset="1" style="stop-color:#4042E2"/>
					</linearGradient>
					<polygon style="fill:url(#SVGID_00000106835874247964896260000001800887833298854842_);" points="1161.543,2417.931 
						1016.403,2427.815 1016.403,2264.447 1161.543,2256.619 					"/>
					
						<linearGradient id="SVGID_00000033357972246647822260000014933927528890082727_" gradientUnits="userSpaceOnUse" x1="1319.3984" y1="2289.6018" x2="1336.5031" y2="2289.6018">
						<stop  offset="0" style="stop-color:#4F52FF"/>
						<stop  offset="1" style="stop-color:#4042E2"/>
					</linearGradient>
					<path style="fill:url(#SVGID_00000033357972246647822260000014933927528890082727_);" d="M1327.957,2673.699
						c-4.724,0.556-8.559-0.178-8.559-1.641v-763.674c0-1.462,3.835-2.822,8.559-3.036c4.72-0.214,8.546,0.797,8.546,2.257v762.446
						C1336.503,2671.51,1332.678,2673.143,1327.957,2673.699z"/>
					
						<linearGradient id="SVGID_00000084516792934916697760000017779708340118891195_" gradientUnits="userSpaceOnUse" x1="1387.6998" y1="2088.3464" x2="1231.6459" y2="2612.3599">
						<stop  offset="0" style="stop-color:#4F52FF"/>
						<stop  offset="1" style="stop-color:#4042E2"/>
					</linearGradient>
					<polygon style="fill:url(#SVGID_00000084516792934916697760000017779708340118891195_);" points="1396.847,2464.676 
						1249.811,2477.165 1249.811,2144.32 1396.847,2135.941 					"/>
					
						<linearGradient id="SVGID_00000029735155813276269910000003617801258113343107_" gradientUnits="userSpaceOnUse" x1="1550.7487" y1="2244.2827" x2="1569.1779" y2="2244.2827">
						<stop  offset="0" style="stop-color:#4F52FF"/>
						<stop  offset="1" style="stop-color:#4042E2"/>
					</linearGradient>
					<path style="fill:url(#SVGID_00000029735155813276269910000003617801258113343107_);" d="M1559.971,2485.785
						c-5.09,0.714-9.222,0.547-9.222-0.373v-480.267c0-0.919,4.132-2.072,9.222-2.575c5.086-0.502,9.207-0.164,9.207,0.754v479.509
						C1569.178,2483.75,1565.056,2485.073,1559.971,2485.785z"/>
					
						<linearGradient id="SVGID_00000005981957786744617830000016578999205015676832_" gradientUnits="userSpaceOnUse" x1="1589.8823" y1="2129.8523" x2="1526.0878" y2="2344.0679">
						<stop  offset="0" style="stop-color:#4F52FF"/>
						<stop  offset="1" style="stop-color:#4042E2"/>
					</linearGradient>
					<polygon style="fill:url(#SVGID_00000005981957786744617830000016578999205015676832_);" points="1638.573,2266.491 
						1488.451,2275.381 1488.451,2170.311 1638.573,2162.696 					"/>
					
						<linearGradient id="SVGID_00000130625353107000872340000007896552424528074137_" gradientUnits="userSpaceOnUse" x1="1799.8625" y1="1816.3606" x2="1817.9279" y2="1816.3606">
						<stop  offset="0" style="stop-color:#4F52FF"/>
						<stop  offset="1" style="stop-color:#4042E2"/>
					</linearGradient>
					<path style="fill:url(#SVGID_00000130625353107000872340000007896552424528074137_);" d="M1808.902,2107.91
						c-4.989,0.198-9.039-0.541-9.039-1.65v-579.555c0-1.11,4.05-1.971,9.039-1.923c4.986,0.047,9.026,0.984,9.026,2.092v578.672
						C1817.928,2106.653,1813.887,2107.712,1808.902,2107.91z"/>
					
						<linearGradient id="SVGID_00000125568383267444728350000000285629085803335064_" gradientUnits="userSpaceOnUse" x1="1861.863" y1="1631.0873" x2="1725.4807" y2="2089.0454">
						<stop  offset="0" style="stop-color:#4F52FF"/>
						<stop  offset="1" style="stop-color:#4042E2"/>
					</linearGradient>
					<polygon style="fill:url(#SVGID_00000125568383267444728350000000285629085803335064_);" points="1878.174,1964.299 
						1732.993,1968.402 1732.993,1675.839 1878.174,1675.159 					"/>
					
						<linearGradient id="SVGID_00000083078687199087668550000011348228972925013687_" gradientUnits="userSpaceOnUse" x1="2036.0493" y1="1988.8325" x2="2053.0625" y2="1988.8325">
						<stop  offset="0" style="stop-color:#4F52FF"/>
						<stop  offset="1" style="stop-color:#4042E2"/>
					</linearGradient>
					<path style="fill:url(#SVGID_00000083078687199087668550000011348228972925013687_);" d="M2044.562,2389.415
						c-4.699,0.305-8.513-0.683-8.513-2.208v-796.299c0-1.525,3.814-2.739,8.513-2.713c4.696,0.027,8.5,1.283,8.5,2.805v795.106
						C2053.063,2387.628,2049.258,2389.11,2044.562,2389.415z"/>
					
						<linearGradient id="SVGID_00000109742515267321281420000004586794201722178215_" gradientUnits="userSpaceOnUse" x1="2113.4648" y1="1756.302" x2="1949.9545" y2="2305.3538">
						<stop  offset="0" style="stop-color:#4F52FF"/>
						<stop  offset="1" style="stop-color:#4042E2"/>
					</linearGradient>
					<polygon style="fill:url(#SVGID_00000109742515267321281420000004586794201722178215_);" points="2117.656,2159.296 
						1974.331,2165.29 1974.331,1806.433 2117.656,1804.565 					"/>
					
						<linearGradient id="SVGID_00000016066166222929746810000004909736510287497128_" gradientUnits="userSpaceOnUse" x1="2275.8484" y1="1992.8101" x2="2292.2986" y2="1992.8101">
						<stop  offset="0" style="stop-color:#4F52FF"/>
						<stop  offset="1" style="stop-color:#4042E2"/>
					</linearGradient>
					<path style="fill:url(#SVGID_00000016066166222929746810000004909736510287497128_);" d="M2284.08,2311.77
						c-4.544,0.391-8.231-0.276-8.231-1.49v-634.092c0-1.214,3.688-2.305,8.231-2.436c4.54-0.131,8.219,0.746,8.219,1.958v633.158
						C2292.299,2310.08,2288.619,2311.379,2284.08,2311.77z"/>
					
						<linearGradient id="SVGID_00000012438521151753139210000014429684005744435857_" gradientUnits="userSpaceOnUse" x1="2331.3193" y1="1906.3069" x2="2220.2974" y2="2279.1079">
						<stop  offset="0" style="stop-color:#4F52FF"/>
						<stop  offset="1" style="stop-color:#4042E2"/>
					</linearGradient>
					<polygon style="fill:url(#SVGID_00000012438521151753139210000014429684005744435857_);" points="2357.137,2170.053 
						2213.811,2177.145 2213.811,1950.448 2357.137,1945.918 					"/>
					
						<linearGradient id="SVGID_00000145055721657562586720000016748157885399300518_" gradientUnits="userSpaceOnUse" x1="2515.8379" y1="1628.3861" x2="2534.4656" y2="1628.3861">
						<stop  offset="0" style="stop-color:#4F52FF"/>
						<stop  offset="1" style="stop-color:#4042E2"/>
					</linearGradient>
					<path style="fill:url(#SVGID_00000145055721657562586720000016748157885399300518_);" d="M2525.158,1853.225
						c-5.145,0.109-9.32-0.496-9.32-1.352V1404.97c0-0.856,4.175-1.497,9.32-1.432c5.141,0.065,9.307,0.811,9.307,1.665v446.276
						C2534.466,1852.335,2530.299,1853.116,2525.158,1853.225z"/>
					
						<linearGradient id="SVGID_00000168114645739045823980000003079464032328269209_" gradientUnits="userSpaceOnUse" x1="2589.2651" y1="1485.6233" x2="2433.0474" y2="2010.1868">
						<stop  offset="0" style="stop-color:#4F52FF"/>
						<stop  offset="1" style="stop-color:#4042E2"/>
					</linearGradient>
					<polygon style="fill:url(#SVGID_00000168114645739045823980000003079464032328269209_);" points="2596.619,1872.424 
						2452.919,1875.352 2452.919,1531.965 2596.619,1532.731 					"/>
					
						<linearGradient id="SVGID_00000018949040300156929250000010812225013623177648_" gradientUnits="userSpaceOnUse" x1="2755.5249" y1="1938.4801" x2="2774.1035" y2="1938.4801">
						<stop  offset="0" style="stop-color:#4F52FF"/>
						<stop  offset="1" style="stop-color:#4042E2"/>
					</linearGradient>
					<path style="fill:url(#SVGID_00000018949040300156929250000010812225013623177648_);" d="M2764.82,2304.831
						c-5.131,0.07-9.295-1.005-9.295-2.399v-728.133c0-1.394,4.164-2.354,9.295-2.145c5.128,0.21,9.283,1.509,9.283,2.901v727.129
						C2774.104,2303.577,2769.948,2304.762,2764.82,2304.831z"/>
					
						<linearGradient id="SVGID_00000152236319632768321610000014820660239627111330_" gradientUnits="userSpaceOnUse" x1="2816.4404" y1="1829.4191" x2="2690.5215" y2="2252.2424">
						<stop  offset="0" style="stop-color:#4F52FF"/>
						<stop  offset="1" style="stop-color:#4042E2"/>
					</linearGradient>
					<polygon style="fill:url(#SVGID_00000152236319632768321610000014820660239627111330_);" points="2836.101,2139.62 
						2692.776,2139.461 2692.776,1868.452 2836.101,1871.48 					"/>
					
						<linearGradient id="SVGID_00000096022200785908591070000002504898135889945218_" gradientUnits="userSpaceOnUse" x1="2998.5898" y1="1534.2371" x2="3017.6477" y2="1534.2371">
						<stop  offset="0" style="stop-color:#4F52FF"/>
						<stop  offset="1" style="stop-color:#4042E2"/>
					</linearGradient>
					<path style="fill:url(#SVGID_00000096022200785908591070000002504898135889945218_);" d="M3008.125,1767.831
						c-5.263,0.118-9.536-0.507-9.536-1.396v-464.293c0-0.889,4.272-1.566,9.536-1.511c5.26,0.055,9.522,0.818,9.522,1.706v463.673
						C3017.648,1766.898,3013.385,1767.714,3008.125,1767.831z"/>
					
						<linearGradient id="SVGID_00000097483305825964647050000004651492110134256295_" gradientUnits="userSpaceOnUse" x1="3044.1147" y1="1379.7683" x2="2956.124" y2="1675.2319">
						<stop  offset="0" style="stop-color:#4F52FF"/>
						<stop  offset="1" style="stop-color:#4042E2"/>
					</linearGradient>
					<polygon style="fill:url(#SVGID_00000097483305825964647050000004651492110134256295_);" points="3081.256,1587.792 
						2934.235,1589.434 2934.235,1415.991 3081.256,1416.13 					"/>
				</g>
			</g>
		</g>
		<g>
			
				<linearGradient id="SVGID_00000039827064655157678980000013507660407870775222_" gradientUnits="userSpaceOnUse" x1="2897.3296" y1="189.6742" x2="2588.707" y2="770.9139">
				<stop  offset="0" style="stop-color:#E1473D"/>
				<stop  offset="1" style="stop-color:#E9605A"/>
			</linearGradient>
			
				<circle style="fill:url(#SVGID_00000039827064655157678980000013507660407870775222_);" cx="2335.465" cy="1247.854" r="574.379"/>
			
				<linearGradient id="SVGID_00000142139011702815639020000010045537820720981940_" gradientUnits="userSpaceOnUse" x1="2388.6455" y1="763.0881" x2="2254.9087" y2="1982.1469">
				<stop  offset="0" style="stop-color:#FF928E"/>
				<stop  offset="1" style="stop-color:#FE7062"/>
			</linearGradient>
			
				<circle style="fill:url(#SVGID_00000142139011702815639020000010045537820720981940_);" cx="2335.465" cy="1247.854" r="555.28"/>
			<path style="fill:#FFFFFF;" d="M1877.583,1020.621c-0.519,0-1.045-0.117-1.541-0.368c-1.691-0.854-2.371-2.917-1.517-4.605
				c42.398-83.995,106.989-154.895,186.787-205.032c82.016-51.534,176.818-78.774,274.155-78.774
				c31.262,0,62.582,2.816,93.084,8.372c1.865,0.338,3.101,2.123,2.76,3.985c-0.338,1.865-2.133,3.125-3.985,2.76
				c-30.1-5.479-61.008-8.259-91.858-8.259c-193.351,0-367.627,107.303-454.82,280.035
				C1880.045,1019.931,1878.835,1020.621,1877.583,1020.621z"/>
			
				<ellipse transform="matrix(0.7071 -0.7071 0.7071 0.7071 -203.3363 2029.0096)" style="opacity:0.78;fill:#FFFFFF;" cx="2347.563" cy="1259.953" rx="469.975" ry="469.976"/>
			
				<linearGradient id="SVGID_00000047782969547991490520000007284021939866586255_" gradientUnits="userSpaceOnUse" x1="2484.0706" y1="875.6629" x2="2252.6033" y2="1528.9153">
				<stop  offset="0" style="stop-color:#FF928E"/>
				<stop  offset="1" style="stop-color:#FE7062"/>
			</linearGradient>
			<path style="fill:url(#SVGID_00000047782969547991490520000007284021939866586255_);" d="M2579.761,1298.203
				c-23.836-22.173-56.621-35.531-96.954-40.063c-0.188-0.022-0.33-0.179-0.33-0.37v-0.797c0-0.171,0.115-0.319,0.281-0.36
				c32.208-8.054,49.832-22.347,70.281-42.869c20.503-20.583,31.502-44.592,31.502-72.039c0-37.85-17.635-67.187-51.331-88.008
				c-28.454-17.576-61.126-27.735-108.286-30.47c-3.144-0.183-5.602-2.781-5.602-5.93v-93.93c0-3.285-2.662-5.947-5.947-5.947
				h-43.166c-3.284,0-5.946,2.662-5.946,5.947v94.985c0,3.283-2.662,5.947-5.947,5.947h-49.643c-3.284,0-5.947-2.663-5.947-5.947
				v-94.985c0-3.285-2.662-5.947-5.947-5.947h-43.166c-3.283,0-5.947,2.662-5.947,5.947v94.985c0,3.283-2.661,5.947-5.946,5.947
				h-125.753c-3.285,0-5.948,2.662-5.948,5.947v48.024c0,3.283,2.663,5.947,5.948,5.947h70.694c3.284,0,5.947,2.662,5.947,5.947
				v370.277c0,3.286-2.662,5.947-5.947,5.947h-70.694c-3.285,0-5.948,2.662-5.948,5.948v54.5c0,3.285,2.663,5.947,5.948,5.947
				h125.753c3.285,0,5.946,2.662,5.946,5.947v98.224c0,3.283,2.663,5.945,5.947,5.945h43.166c3.285,0,5.947-2.662,5.947-5.945
				v-98.224c0-3.284,2.663-5.947,5.947-5.947h49.643c3.285,0,5.947,2.662,5.947,5.947v98.224c0,3.283,2.662,5.945,5.946,5.945
				h43.166c3.284,0,5.947-2.662,5.947-5.945v-99.988c0-3.195,2.521-5.813,5.714-5.938c55.744-2.177,102.046-15.721,135.659-40.66
				c36.83-27.324,55.08-64.288,55.08-110.897C2615.774,1347.53,2603.661,1320.444,2579.761,1298.203z M2369.082,1108.506
				c61.641,0,92.467,17.903,92.467,55.28c0,20.111-7.512,35.886-22.53,47.358c-15.023,11.479-35.593,17.195-61.708,17.195h-68.638
				c-3.284,0-5.947-2.661-5.947-5.945v-107.941c0-3.283,2.663-5.947,5.947-5.947H2369.082z M2459.002,1430.979
				c-16.591,12.303-39.512,19.215-68.763,19.215h-81.566c-3.284,0-5.947-2.662-5.947-5.948v-124.133
				c0-3.285,2.663-5.947,5.947-5.947h82.35c29.25,0,52.043,5.093,68.371,16.682c16.322,11.594,24.489,29.365,24.489,49.709
				C2483.882,1401.85,2475.587,1418.678,2459.002,1430.979z"/>
		</g>
		<g>
			
				<linearGradient id="SVGID_00000121980468599645611370000003051898776305864359_" gradientUnits="userSpaceOnUse" x1="1082.6252" y1="3128.5591" x2="586.0119" y2="3668.7356">
				<stop  offset="0" style="stop-color:#09005D"/>
				<stop  offset="1" style="stop-color:#1A0F91"/>
			</linearGradient>
			<path style="fill:url(#SVGID_00000121980468599645611370000003051898776305864359_);" d="M925.645,3168.799
				c0,0-5.143,29.116-7.664,57.937c-0.985,11.265,7.699,21.045,18.996,21.515c38.381,1.599,120.481,4.707,149.941,3.393
				c4.429-0.198,7.324-4.731,5.685-8.851l0,0c-1.374-3.451-4.022-6.242-7.398-7.793l-135.613-62.328L925.645,3168.799z"/>
			
				<linearGradient id="SVGID_00000142891884221234744600000015683524973021057681_" gradientUnits="userSpaceOnUse" x1="921.4324" y1="3168.6792" x2="965.5436" y2="3168.6792">
				<stop  offset="0" style="stop-color:#FEBBBA"/>
				<stop  offset="1" style="stop-color:#FF928E"/>
			</linearGradient>
			<path style="fill:url(#SVGID_00000142891884221234744600000015683524973021057681_);" d="M921.432,3151.692l4.131,34.827
				c0,0,23.756,11.058,39.98-1.395l-9.838-38.81L921.432,3151.692z"/>
			
				<linearGradient id="SVGID_00000092431314564861887750000007164917023027899537_" gradientUnits="userSpaceOnUse" x1="816.8334" y1="2831.3879" x2="962.6881" y2="2831.3879">
				<stop  offset="0" style="stop-color:#09005D"/>
				<stop  offset="1" style="stop-color:#1A0F91"/>
			</linearGradient>
			<path style="fill:url(#SVGID_00000092431314564861887750000007164917023027899537_);" d="M924.538,2496.949
				c-1.785,9.095-9.58,453.844,37.96,653.151c0.776,3.252-0.873,6.604-3.968,7.869c-7.292,2.979-21.586,7.293-38.718,7.869
				c-5.305,0.178-10.062-3.271-11.559-8.363c-13.589-46.242-78.707-277.929-87.201-499.254c-9.492-247.308,0-8.42,0-8.42
				l5.567-152.871L924.538,2496.949z"/>
			
				<linearGradient id="SVGID_00000170981631609561748280000017289529722343893637_" gradientUnits="userSpaceOnUse" x1="971.218" y1="3026.137" x2="474.6055" y2="3566.3125">
				<stop  offset="0" style="stop-color:#09005D"/>
				<stop  offset="1" style="stop-color:#1A0F91"/>
			</linearGradient>
			<path style="fill:url(#SVGID_00000170981631609561748280000017289529722343893637_);" d="M769.645,3183.989
				c0,0-8.187,14.698-16.112,53.757c-1.431,7.053,3.497,13.804,10.66,14.509c12.673,1.246,32.184,2.848,47.812,2.741
				c7.205-0.05,12.827-6.323,11.959-13.475c-1.731-14.257-7.124-37.646-23.785-55.877L769.645,3183.989z"/>
			
				<linearGradient id="SVGID_00000054239826639973329350000002348646479632095621_" gradientUnits="userSpaceOnUse" x1="762.4548" y1="3166.4165" x2="800.5408" y2="3166.4165">
				<stop  offset="0" style="stop-color:#FEBBBA"/>
				<stop  offset="1" style="stop-color:#FF928E"/>
			</linearGradient>
			<path style="fill:url(#SVGID_00000054239826639973329350000002348646479632095621_);" d="M762.455,3139.194l9.655,52.666
				c0,0,9.546,7.1,28.431,1.953l-4.609-56.666L762.455,3139.194z"/>
			
				<linearGradient id="SVGID_00000168800002929671201150000007227452524527422140_" gradientUnits="userSpaceOnUse" x1="721.4036" y1="2826.6152" x2="928.4703" y2="2826.6152">
				<stop  offset="0" style="stop-color:#09005D"/>
				<stop  offset="1" style="stop-color:#1A0F91"/>
			</linearGradient>
			<path style="fill:url(#SVGID_00000168800002929671201150000007227452524527422140_);" d="M736.371,2510.598
				c-38.882,234.653,8.435,579.965,24.392,647.551c0.977,4.137,4.317,7.307,8.51,8.003c7.123,1.181,18.85,2.144,30.411-1.214
				c3.983-1.157,6.782-4.75,6.945-8.895c2.141-54.641-1.712-390.085,34.516-522.654c1.837-6.719,5.939-12.578,11.615-16.613
				l70.318-49.99l5.391-80.804L736.371,2510.598z"/>
			<g>
				
					<linearGradient id="SVGID_00000131335122577658477350000009151307424816237730_" gradientUnits="userSpaceOnUse" x1="2027.7917" y1="1034.0887" x2="1631.7256" y2="1455.874">
					<stop  offset="0" style="stop-color:#FF928E"/>
					<stop  offset="1" style="stop-color:#FE7062"/>
				</linearGradient>
				<path style="fill:url(#SVGID_00000131335122577658477350000009151307424816237730_);" d="M984.127,2065.974
					c-116.521-1.925-245.089,30.595-245.089,30.595c-34.732,202.664-6.073,436.42-6.073,436.42
					c90.207,23.657,191.967-14.463,191.967-14.463c14.993-84.709,84.947-323.106,84.947-323.106
					c56.932-7.066,103.831-23.491,142.453-45.207c-29.46-34.149-43.348-77.601-49.381-103.287
					C1061.753,2059.73,1020.066,2066.568,984.127,2065.974z"/>
				
					<linearGradient id="SVGID_00000048463941915359296970000017797999519620131992_" gradientUnits="userSpaceOnUse" x1="1102.9506" y1="2017.8636" x2="1328.309" y2="2017.8636">
					<stop  offset="0" style="stop-color:#FEBBBA"/>
					<stop  offset="1" style="stop-color:#FF928E"/>
				</linearGradient>
				<path style="fill:url(#SVGID_00000048463941915359296970000017797999519620131992_);" d="M1328.309,1894.345
					c-11.447-13.825-25.933-7.285-25.933-7.285c-17.148,72.431-107.056,131.16-199.425,159.866
					c6.033,25.686,19.921,69.138,49.381,103.287C1305.625,2064.022,1328.309,1894.345,1328.309,1894.345z"/>
			</g>
			<g>
				
					<linearGradient id="SVGID_00000019638041904000243960000014241055999841464758_" gradientUnits="userSpaceOnUse" x1="9169.6719" y1="1980.0885" x2="9320.8926" y2="2324.1504" gradientTransform="matrix(-1 0 0 1 10447.7783 0)">
					<stop  offset="0" style="stop-color:#FEBBBA"/>
					<stop  offset="1" style="stop-color:#FF928E"/>
				</linearGradient>
				<path style="fill:url(#SVGID_00000019638041904000243960000014241055999841464758_);" d="M1325.53,1897.861
					c1.198,3.807-12.672,9.605-20.838-5.968c-0.285-7.463-4.824-39.438-0.365-45.518c23.753-32.382,69.803-72.975,69.803-72.975
					c7.782,7.679,1.37,15.224,1.37,15.224l-22.339,23.272c4.672,8.444,10.372,15.571,13.043,25.785
					c2.023,7.734,0.786,16-3.121,23.04c-3.922,7.065-9.272,16.248-14.328,23.435
					C1339.181,1897.759,1325.53,1897.861,1325.53,1897.861z"/>
				
					<linearGradient id="SVGID_00000176739834661785997430000012266681032469697978_" gradientUnits="userSpaceOnUse" x1="1327.2272" y1="1865.5038" x2="1390.3254" y2="1768.4901">
					<stop  offset="0" style="stop-color:#FEBBBA"/>
					<stop  offset="1" style="stop-color:#FF928E"/>
				</linearGradient>
				<path style="fill:url(#SVGID_00000176739834661785997430000012266681032469697978_);" d="M1343.39,1826.996l-20.357,17.258
					l-6.392,17.182l18.151,20.136c0,0,6.103-34.092,10.639-41.472C1349.967,1832.722,1347.614,1829.154,1343.39,1826.996z"/>
			</g>
			
				<linearGradient id="SVGID_00000000935743150235373390000006956708590173628550_" gradientUnits="userSpaceOnUse" x1="1910.2148" y1="923.6796" x2="1514.1489" y2="1345.4646">
				<stop  offset="0" style="stop-color:#FF928E"/>
				<stop  offset="1" style="stop-color:#FE7062"/>
			</linearGradient>
			<path style="fill:url(#SVGID_00000000935743150235373390000006956708590173628550_);" d="M783.731,2209.396l-44.693-112.827
				c0,0-108.837,73.95-126.735,167.711c20.565,1.514,57.985,6.864,94.614,25.358
				C714.965,2245.366,783.731,2209.396,783.731,2209.396z"/>
			
				<linearGradient id="SVGID_00000141445205366601109590000006030045697576036754_" gradientUnits="userSpaceOnUse" x1="609.8211" y1="2337.0771" x2="895.0136" y2="2337.0771">
				<stop  offset="0" style="stop-color:#FEBBBA"/>
				<stop  offset="1" style="stop-color:#FF928E"/>
			</linearGradient>
			<path style="fill:url(#SVGID_00000141445205366601109590000006030045697576036754_);" d="M878.842,2315.561
				c0,0-122.197,69.06-163.427,10.091c-8.561-12.244-10.607-24.413-8.499-36.014c-36.628-18.494-74.049-23.844-94.614-25.358
				c-5.397,28.265-2.544,58.328,14.065,88.712c72.223,132.115,268.646-7.302,268.646-7.302L878.842,2315.561z"/>
			<g>
				
					<linearGradient id="SVGID_00000065760529755019741820000010403743697745902492_" gradientUnits="userSpaceOnUse" x1="981.2944" y1="2134.3147" x2="1138.1111" y2="2787.7195">
					<stop  offset="0" style="stop-color:#09005D"/>
					<stop  offset="1" style="stop-color:#1A0F91"/>
				</linearGradient>
				<path style="fill:url(#SVGID_00000065760529755019741820000010403743697745902492_);" d="M864.159,2402.929l66.691-232.897
					c0.757-2.644,3.013-4.573,5.744-4.891c12.083-1.41,47.095-5.368,87.52-8.787c48.693-4.119,105.241-7.456,139.032-4.617
					c4.804,0.404,7.707,5.484,5.571,9.806c-19.215,38.876-98.256,197.013-137.837,248.816c-1.312,1.716-3.34,2.72-5.5,2.699
					l-154.732-1.44C866.145,2411.577,862.92,2407.258,864.159,2402.929z"/>
				<path style="fill:#7D97F4;" d="M1031.032,2136.163l48.352-8.056c2.575-0.429,4.684,2.031,3.866,4.51l-4.786,14.504
					c-0.417,1.262-1.519,2.176-2.836,2.352l-46.528,6.216c-2.407,0.322-4.392-1.866-3.838-4.23l2.963-12.663
					C1028.542,2137.432,1029.651,2136.393,1031.032,2136.163z"/>
				<path style="fill:#7D97F4;" d="M994.828,2177.097l3.983-20.748c0.4-2.081,2.118-3.653,4.226-3.867l97.659-9.91
					c3.287-0.334,5.919,2.679,5.148,5.891l-6.209,25.854c-0.497,2.069-2.297,3.563-4.422,3.67l-95.433,4.804
					C996.673,2182.947,994.241,2180.151,994.828,2177.097z"/>
				
					<linearGradient id="SVGID_00000077301291481181787310000011189084470741065372_" gradientUnits="userSpaceOnUse" x1="873.8392" y1="2307.1748" x2="962.6879" y2="2307.1748">
					<stop  offset="0" style="stop-color:#FEBBBA"/>
					<stop  offset="1" style="stop-color:#FF928E"/>
				</linearGradient>
				<path style="fill:url(#SVGID_00000077301291481181787310000011189084470741065372_);" d="M880.272,2346.661
					c0,0-9.29-38.2-5.542-51.753c3.747-13.553,11.008-30.978,35.209-27.106c24.201,3.873,52.749,14.068,52.749,14.068
					s-1.442,17.653-19.835,11.957l11.406,8.825c0,0-1.63,14.135-17.167,6.583l10.609,11.705c0,0-6.672,11.608-18.103,4.163
					C918.167,2317.658,912.688,2351.261,880.272,2346.661z"/>
			</g>
			
				<linearGradient id="SVGID_00000103226642121827479260000000501306962943919801_" gradientUnits="userSpaceOnUse" x1="828.8088" y1="2032.1891" x2="941.565" y2="2032.1891">
				<stop  offset="0" style="stop-color:#FEBBBA"/>
				<stop  offset="1" style="stop-color:#FF928E"/>
			</linearGradient>
			<path style="fill:url(#SVGID_00000103226642121827479260000000501306962943919801_);" d="M866.1,1971.378l-37.076,107.218
				c-0.614,1.776,0.117,3.743,1.762,4.653c10.106,5.587,46.517,21.739,90.396-6.081c4.571-2.898,7.683-7.624,8.377-12.992
				l12.007-92.798H866.1z"/>
			<g>
				
					<linearGradient id="SVGID_00000096762688911039374780000006928610335463789718_" gradientUnits="userSpaceOnUse" x1="-4942.4355" y1="-707.1577" x2="-4984.5713" y2="-846.1304" gradientTransform="matrix(0.746 -0.6659 0.6659 0.746 5126.3354 -803.1727)">
					<stop  offset="0" style="stop-color:#FEBBBA"/>
					<stop  offset="1" style="stop-color:#FF928E"/>
				</linearGradient>
				<path style="fill:url(#SVGID_00000096762688911039374780000006928610335463789718_);" d="M946.771,1872.09
					c0,0,40.712,76.636,35.493,107.594c-5.219,30.958-55.675,28.735-99.735,3.592l-30.788-82.751L946.771,1872.09z"/>
				
					<linearGradient id="SVGID_00000065042540624455978590000006437464834138886800_" gradientUnits="userSpaceOnUse" x1="-4980.4502" y1="-949.2973" x2="-4945.2041" y2="-748.2641" gradientTransform="matrix(0.746 -0.6659 0.6659 0.746 5126.3354 -803.1727)">
					<stop  offset="0" style="stop-color:#09005D"/>
					<stop  offset="1" style="stop-color:#1A0F91"/>
				</linearGradient>
				<path style="fill:url(#SVGID_00000065042540624455978590000006437464834138886800_);" d="M884.476,1942.637
					c1.79-0.793,2.452-2.984,1.379-4.623c-3.262-4.983-9.376-15.149-11.326-24.049c0,0-7.32-4.687,18.628-10.897
					c25.947-6.211,64.64-15.85,72.773-37.936c7.93-21.533-12.905-75.684-46.144-32.538c-1.264,1.642-3.742,1.678-5.005,0.035
					c-5.449-7.092-19.774-21.812-39.664-12.888c-18.612,8.351-20.709,21.99-20.453,28.864c0.075,2.023-1.733,3.594-3.72,3.215
					c-9.411-1.794-31.993-3.336-42.533,19.83c-8.682,19.081-3.039,29.883,2.1,35.165c1.665,1.711,0.935,4.53-1.348,5.229
					c-6.185,1.893-14.172,7.137-13.372,21.627c1.106,20.031,23.502,18.266,29.879,17.353c1.044-0.15,2.096,0.209,2.804,0.992
					c5.468,6.05,30.102,31.741,56.762,34.838c2.309,0.267,4.098-2.012,3.342-4.21l-11.537-33.539
					c-0.536-1.558,0.209-3.267,1.715-3.934L884.476,1942.637z"/>
				
					<linearGradient id="SVGID_00000050657387227007683780000013794170299967167919_" gradientUnits="userSpaceOnUse" x1="-4985.5083" y1="-707.8043" x2="-5023.4185" y2="-832.8415" gradientTransform="matrix(0.746 -0.6659 0.6659 0.746 5126.3354 -803.1727)">
					<stop  offset="0" style="stop-color:#FEBBBA"/>
					<stop  offset="1" style="stop-color:#FF928E"/>
				</linearGradient>
				<path style="fill:url(#SVGID_00000050657387227007683780000013794170299967167919_);" d="M889.114,1947.398
					c0,0-28.988-19.889-31.106-3.14c-2.118,16.749,26.103,24.26,40.082,18.016L889.114,1947.398z"/>
			</g>
		</g>
		<g>
			<g>
				
					<linearGradient id="SVGID_00000134963457073375597620000012594534478284392322_" gradientUnits="userSpaceOnUse" x1="2890.1228" y1="2628.1897" x2="2528.9866" y2="4019.2307">
					<stop  offset="0" style="stop-color:#09005D"/>
					<stop  offset="1" style="stop-color:#1A0F91"/>
				</linearGradient>
				
					<rect x="2772.111" y="2905.172" style="fill:url(#SVGID_00000134963457073375597620000012594534478284392322_);" width="24.216" height="261.882"/>
				
					<linearGradient id="SVGID_00000011022365708186960240000003060594403616707459_" gradientUnits="userSpaceOnUse" x1="2927.5139" y1="2613.4158" x2="2551.616" y2="4061.3167">
					<stop  offset="0" style="stop-color:#09005D"/>
					<stop  offset="1" style="stop-color:#1A0F91"/>
				</linearGradient>
				<path style="fill:url(#SVGID_00000011022365708186960240000003060594403616707459_);" d="M2890.268,3172.104h-212.098v-13.142
					c0-1.448,1.173-2.621,2.621-2.621h206.856c1.447,0,2.621,1.173,2.621,2.621V3172.104z"/>
				
					<linearGradient id="SVGID_00000090980778769569646690000003223101210399216824_" gradientUnits="userSpaceOnUse" x1="2857.1262" y1="2619.6233" x2="2495.9883" y2="4010.6711">
					<stop  offset="0" style="stop-color:#09005D"/>
					<stop  offset="1" style="stop-color:#1A0F91"/>
				</linearGradient>
				<path style="fill:url(#SVGID_00000090980778769569646690000003223101210399216824_);" d="M2921.746,2896.083
					c0,14.323-11.719,26.042-26.042,26.042h-214.588c-14.323,0-26.042-11.719-26.042-26.042v-23.547
					c0-14.323,11.719-26.043,26.042-26.043h214.588c14.323,0,26.042,11.72,26.042,26.043V2896.083z"/>
			</g>
			<g>
				
					<linearGradient id="SVGID_00000006695917684281597110000002384149336051508401_" gradientUnits="userSpaceOnUse" x1="2519.9446" y1="2945.4009" x2="2692.1299" y2="2945.4009">
					<stop  offset="0" style="stop-color:#FEBBBA"/>
					<stop  offset="1" style="stop-color:#FF928E"/>
				</linearGradient>
				<path style="fill:url(#SVGID_00000006695917684281597110000002384149336051508401_);" d="M2605.444,2730.556
					c0,0-35.984,5.578-76.442,32.624c-6.367,4.256-9.86,11.676-8.9,19.274c4.844,38.374,24.763,162.577,90.446,283.888
					c3.463,6.396,4.458,13.844,2.93,20.955l-11.412,53.105l-21.162,19.843h54.509l36.293-98.215l-15.52-4.907
					c-12.032-3.805-20.287-14.873-20.506-27.49l-1.821-105.358c1.554-46.939-28.782-79.325-28.782-79.325l87.052-4.235
					L2605.444,2730.556z"/>
				
					<linearGradient id="SVGID_00000054955385509485487130000008869721135282706601_" gradientUnits="userSpaceOnUse" x1="2625.2981" y1="3057.5967" x2="2599.9724" y2="3445.9246">
					<stop  offset="0" style="stop-color:#4F52FF"/>
					<stop  offset="1" style="stop-color:#4042E2"/>
				</linearGradient>
				<path style="fill:url(#SVGID_00000054955385509485487130000008869721135282706601_);" d="M2559.621,3169.827
					c-4.965,6.496,53.428,15.069,82.929,0.859c0,0,40.896-71.152,40.896-107.786c0,0-3.245-7.471-27.259-5.776
					c0,0-13.73,84.248-28.23,93.685c-14.499,9.437-40.565,0.955-40.565,0.955S2566.945,3160.24,2559.621,3169.827z"/>
				
					<linearGradient id="SVGID_00000049927708210967170790000000804216534743353521_" gradientUnits="userSpaceOnUse" x1="2317.7705" y1="2957.1624" x2="2681.1157" y2="2957.1624">
					<stop  offset="0" style="stop-color:#FEBBBA"/>
					<stop  offset="1" style="stop-color:#FF928E"/>
				</linearGradient>
				<path style="fill:url(#SVGID_00000049927708210967170790000000804216534743353521_);" d="M2681.116,2846.493
					c-0.463-0.801-93.724-11.214-93.724-11.214s3.052,28.357-6.487,67.392c-9.539,39.036-146.467,208.156-146.467,208.156
					l14.357,45.514c-44.391,15.463-88.057,17.935-131.024,7.882l88.978-53.396c0,0,83.273-283.778,134.28-334.404l93.483-32.343
					L2681.116,2846.493z"/>
				
					<linearGradient id="SVGID_00000170279964567053640040000001362494493347730067_" gradientUnits="userSpaceOnUse" x1="2798.6899" y1="2543.0518" x2="2618.6594" y2="3340.3274">
					<stop  offset="0" style="stop-color:#4F52FF"/>
					<stop  offset="1" style="stop-color:#4042E2"/>
				</linearGradient>
				<path style="fill:url(#SVGID_00000170279964567053640040000001362494493347730067_);" d="M2890.268,2681.372
					c0,0,53.732,79.92,58.141,116.376c4.41,36.456-14.718,51.269-71.097,53.711c-56.379,2.443-206.887,2.404-206.887,2.404
					l-128.457-109.783c0,0,93.614-33.404,117.953-42.85C2684.259,2691.786,2890.268,2681.372,2890.268,2681.372z"/>
				
					<linearGradient id="SVGID_00000003087705955429233830000009719472955942516404_" gradientUnits="userSpaceOnUse" x1="2380.908" y1="3041.6587" x2="2355.5823" y2="3429.9856">
					<stop  offset="0" style="stop-color:#4F52FF"/>
					<stop  offset="1" style="stop-color:#4042E2"/>
				</linearGradient>
				<path style="fill:url(#SVGID_00000003087705955429233830000009719472955942516404_);" d="M2443.37,3141.013
					c0,0,15.456,14.971,5.015,31.629c0,0-122.447,21.705-155.693,11.856c0,0,6.903-15.756,44.338-33.689l-2.762,2.12
					c-3.495,2.683-1.446,8.273,2.954,8.022C2361.892,3159.544,2412.942,3155.025,2443.37,3141.013z"/>
			</g>
			<g>
				
					<linearGradient id="SVGID_00000014635597589073484400000012893493093989452477_" gradientUnits="userSpaceOnUse" x1="3790.5068" y1="663.9275" x2="3481.8845" y2="1245.1665">
					<stop  offset="0" style="stop-color:#FF928E"/>
					<stop  offset="1" style="stop-color:#FE7062"/>
				</linearGradient>
				<path style="fill:url(#SVGID_00000014635597589073484400000012893493093989452477_);" d="M2744.956,2670.793
					c0,0-62.572-59.581-93.372-99.044c-16.649-21.332-21.877-49.413-14.177-75.355c14.062-47.375,39.052-96.444,41.331-104.08
					c3.494-11.706,73.653-11.219,73.653-11.219s138.058,89.602,192.302,241.379l-60.919,18.966c0,0-36.047-60.476-71.664-98.925
					c0,0,61.629,81.415,63.8,114.744L2744.956,2670.793z"/>
				
					<linearGradient id="SVGID_00000129918534821875390720000010013524799636487079_" gradientUnits="userSpaceOnUse" x1="2725.8838" y1="2458.4817" x2="2707.7097" y2="2341.866">
					<stop  offset="0" style="stop-color:#FEBBBA"/>
					<stop  offset="1" style="stop-color:#FF928E"/>
				</linearGradient>
				<path style="fill:url(#SVGID_00000129918534821875390720000010013524799636487079_);" d="M2670.252,2326.893
					c0.733,2.434,19.045,63.14,20.477,64.4c1.432,1.26,40.159,3.343,58.387-9.115l-30.925-64.738L2670.252,2326.893z"/>
				
					<linearGradient id="SVGID_00000078740304179523916810000012979889198259835568_" gradientUnits="userSpaceOnUse" x1="2647.3328" y1="2238.7085" x2="2807.8684" y2="2347.7515">
					<stop  offset="0" style="stop-color:#FEBBBA"/>
					<stop  offset="1" style="stop-color:#FF928E"/>
				</linearGradient>
				<path style="fill:url(#SVGID_00000078740304179523916810000012979889198259835568_);" d="M2700.333,2199.387
					c0,0-33.058,13.959-55.536,61.729c-22.478,47.77-5.691,69.826,15.393,72.854c21.085,3.028,52.616,2.567,85.969-28.292
					C2779.511,2274.82,2743.306,2182.841,2700.333,2199.387z"/>
				
					<linearGradient id="SVGID_00000129883961136204096070000013457769319953684889_" gradientUnits="userSpaceOnUse" x1="2927.4993" y1="2033.8602" x2="2658.2397" y2="2313.9988">
					<stop  offset="0" style="stop-color:#09005D"/>
					<stop  offset="1" style="stop-color:#1A0F91"/>
				</linearGradient>
				<path style="fill:url(#SVGID_00000129883961136204096070000013457769319953684889_);" d="M2723.738,2280.176
					c0,0,24.941-69.889-37.022-70.716l-14.581,10.191c0,0-22.735-38.749,14.581-57.246c37.316-18.497,92.996-2.028,108.876,48.246
					c15.879,50.273,6.584,82.737-19.835,106.789c-26.419,24.054-37.307-3.22-37.307-3.22s14.387-22.497,8.531-34.533
					c-5.857-12.037-19.365,2.49-19.365,2.49L2723.738,2280.176z"/>
				
					<linearGradient id="SVGID_00000091011957610860715390000002069359940979508630_" gradientUnits="userSpaceOnUse" x1="2656.9541" y1="2224.5417" x2="2817.491" y2="2333.5857">
					<stop  offset="0" style="stop-color:#FEBBBA"/>
					<stop  offset="1" style="stop-color:#FF928E"/>
				</linearGradient>
				<path style="fill:url(#SVGID_00000091011957610860715390000002069359940979508630_);" d="M2730.687,2287.96
					c0,0,12.61-36.002,29.433-21.665c16.823,14.338-13.672,33.256-25.61,39.384L2730.687,2287.96z"/>
				
					<linearGradient id="SVGID_00000178893305128300393860000011168369686938959029_" gradientUnits="userSpaceOnUse" x1="2830.2195" y1="2660.4004" x2="3171.5381" y2="2660.4004">
					<stop  offset="0" style="stop-color:#FEBBBA"/>
					<stop  offset="1" style="stop-color:#FF928E"/>
				</linearGradient>
				<path style="fill:url(#SVGID_00000178893305128300393860000011168369686938959029_);" d="M2617.483,2675.217l45.972-44.311
					l63.597,26.866c0,0,63.302,9.808,99.534,0c36.231-9.807,36.231-9.807,36.231-9.807l81.875-25.49l12.859,36.342
					c3.265,9.227-0.016,19.47-7.994,25.138c-7.084,5.034-15.386,10.566-20.679,12.881c-10.782,4.717-265.791-3.263-265.791-3.263
					L2617.483,2675.217z"/>
				
					<linearGradient id="SVGID_00000065073713403597576820000007650780010535941775_" gradientUnits="userSpaceOnUse" x1="3047.1758" y1="2148.8889" x2="2777.9165" y2="2429.0271">
					<stop  offset="0" style="stop-color:#09005D"/>
					<stop  offset="1" style="stop-color:#1A0F91"/>
				</linearGradient>
				<path style="fill:url(#SVGID_00000065073713403597576820000007650780010535941775_);" d="M2790.733,2218.528
					c-7.967-8.139-2.79-21.887,8.464-23.643c36.326-5.665,91.708,0.116,114.971,77.876c26.205,87.593,43.263,131.385,60.769,139.072
					c11.497,5.047,12.234,21.005,0.781,26.148c-8.469,3.803-20.592,5.151-37.945,1.334
					C2803.915,2409.867,2837.464,2266.267,2790.733,2218.528z"/>
			</g>
			<g>
				
					<linearGradient id="SVGID_00000058562005794158712580000000451094116943253947_" gradientUnits="userSpaceOnUse" x1="2742.1965" y1="2819.1309" x2="2527.3333" y2="2878.0193" gradientTransform="matrix(0.9988 -0.0494 0.0494 0.9988 -41.469 -55.0328)">
					<stop  offset="0" style="stop-color:#09005D"/>
					<stop  offset="1" style="stop-color:#1A0F91"/>
				</linearGradient>
				<path style="fill:url(#SVGID_00000058562005794158712580000000451094116943253947_);" d="M2791.457,2696.106
					c-0.203,0.01-0.407,0.017-0.613,0.014l-266.677-0.291c-6.593-0.005-11.931-5.355-11.924-11.948
					c0.006-6.595,5.375-12.042,11.95-11.924l266.677,0.291c6.593,0.006,11.931,5.356,11.925,11.948
					C2802.787,2690.584,2797.764,2695.795,2791.457,2696.106z"/>
				
					<linearGradient id="SVGID_00000022552476442613457030000017597224250256460696_" gradientUnits="userSpaceOnUse" x1="2545.8948" y1="2486.4475" x2="2393.4397" y2="2647.583">
					<stop  offset="0" style="stop-color:#09005D"/>
					<stop  offset="1" style="stop-color:#1A0F91"/>
				</linearGradient>
				<path style="fill:url(#SVGID_00000022552476442613457030000017597224250256460696_);" d="M2284.436,2453.98h222.09
					c16.384,0,31.296,9.455,38.284,24.273l102.672,217.711h-275.999c-10.557,0-20.044-6.451-23.925-16.27l-79.618-201.459
					C2263.341,2466.594,2271.919,2453.98,2284.436,2453.98z"/>
				<path style="fill:#91B3FA;" d="M2440.9,2565.607c4.813,14.952,1.258,29.473-7.941,32.435c-9.199,2.96-20.557-6.76-25.37-21.713
					c-4.813-14.953-1.258-29.475,7.941-32.435C2424.729,2540.933,2436.088,2550.654,2440.9,2565.607z"/>
			</g>
			<g>
				<path style="fill:#7D97F4;" d="M3164.186,2705.849c0.624-3.023-0.226-6.151-2.316-8.526c-2.091-2.375-5.204-3.751-8.489-3.751
					H2040.546c-4.32,0-8.343,2.064-10.671,5.476c-2.327,3.411-2.639,7.7-0.828,11.377l12.059,24.466
					c2.762,5.603,8.746,9.19,15.329,9.19h1089.309c6.125,0,11.39-4.071,12.552-9.708L3164.186,2705.849z"/>
				<g>
					<path style="fill:#7D97F4;" d="M2102.919,3221.502c-1.287,0-2.595-0.263-3.854-0.817c-4.954-2.18-7.243-8.058-5.112-13.126
						l204.816-487.154c2.131-5.067,7.872-7.408,12.831-5.229c4.954,2.18,7.243,8.058,5.112,13.127l-204.816,487.154
						C2110.306,3219.236,2106.704,3221.502,2102.919,3221.502z"/>
					<path style="fill:#7D97F4;" d="M2333.654,3221.502c-3.784,0-7.386-2.263-8.976-6.046l-204.816-487.154
						c-2.131-5.068,0.157-10.947,5.112-13.127c4.951-2.182,10.697,0.159,12.83,5.229l204.816,487.154
						c2.132,5.069-0.157,10.947-5.111,13.126C2336.251,3221.238,2334.941,3221.502,2333.654,3221.502z"/>
					<path style="fill:#7D97F4;" d="M2909.462,3221.502c-1.287,0-2.595-0.263-3.854-0.817c-4.955-2.18-7.244-8.058-5.112-13.126
						l204.816-487.154c2.131-5.067,7.869-7.408,12.83-5.229c4.954,2.18,7.243,8.058,5.112,13.127l-204.816,487.154
						C2916.849,3219.236,2913.247,3221.502,2909.462,3221.502z"/>
					<path style="fill:#7D97F4;" d="M3140.195,3221.502c-3.785,0-7.387-2.263-8.976-6.046l-204.816-487.154
						c-2.131-5.068,0.158-10.947,5.112-13.127c4.951-2.182,10.697,0.159,12.831,5.229l204.816,487.154
						c2.131,5.069-0.158,10.947-5.112,13.126C3142.793,3221.238,3141.483,3221.502,3140.195,3221.502z"/>
				</g>
			</g>
		</g>
	</g>
</g>
</svg>
